<svg id="icon" height="512" viewBox="0 0 128 128" width="512" xmlns="http://www.w3.org/2000/svg"><path d="m89.839 90.973c0 19.7-11.591 11.678-25.866 11.678-14.257 0-25.812 8.018-25.812-11.678 0-8.939 18.375-22.848 24.125-26.966-5.75-4.117-24.125-18.041-24.125-26.98 0-19.681 11.555-11.678 25.812-11.678 14.275 0 25.866-8 25.866 11.678 0 8.939-18.411 22.863-24.179 26.98 5.768 4.118 24.179 18.027 24.179 26.966z" fill="#eeefee" opacity=".7"/><g opacity=".5"><path d="m79.87 45.858a.855.855 0 0 1 -.637-1.423c4.293-4.81 4.626-6.886 4.626-7.407a.855.855 0 0 1 1.709 0c0 2.376-2.751 5.958-5.06 8.545a.855.855 0 0 1 -.638.285z" fill="#fff"/></g><path d="m88.446 92.967c0 15.807-8.587 7.967-24.481 7.967-15.841 0-24.411 7.84-24.411-7.967 0-5.206 24.716-20.852 24.716-20.852s24.176 15.646 24.176 20.852z" fill="#f6b863"/><path d="m81.152 49.223-.376.376a123.051 123.051 0 0 1 -15.768 13.017l-.718.5-.7-.5c-6.816-4.816-14.333-11.036-19.048-16.605-.29-.341-.564-.666-.82-1.008a22.555 22.555 0 0 1 17.767.786l.064.03a31.11 31.11 0 0 0 10.258 2.581z" fill="#f6b863"/><rect fill="#575b6d" height="7.91" rx="1.708" width="60.712" x="33.644" y="23"/><rect fill="#575b6d" height="7.91" rx="1.708" width="60.712" x="33.644" y="97.09"/><path d="m63.696 61.171h1.147v14.628h-1.147z" fill="#f6b863"/></svg>