<svg id="Layer_1" enable-background="new 0 0 512 512" height="512" viewBox="0 0 512 512" width="512" xmlns="http://www.w3.org/2000/svg"><g><path d="m437.019 437.019-58.276-58.276c-33.84 33.84-78.292 50.761-122.743 50.761v82.496c65.516 0 131.032-24.994 181.019-74.981z" fill="#ffd15b"/><g><g><path d="m429.504 256h82.496c0-65.516-24.994-131.032-74.981-181.019l-58.276 58.276c33.841 33.84 50.761 78.291 50.761 122.743z" fill="#fea3c6"/><path d="m82.496 256h-82.496c0 65.516 24.994 131.032 74.981 181.019l58.276-58.276c-33.841-33.84-50.761-78.291-50.761-122.743z" fill="#fea713"/><path d="m133.256 378.743-58.276 58.276c49.988 49.987 115.504 74.981 181.02 74.981v-82.496c-44.452 0-88.903-16.92-122.744-50.761z" fill="#ffc344"/><path d="m133.256 133.257-58.275-58.276c-49.987 49.987-74.981 115.503-74.981 181.019h82.496c0-44.452 16.92-88.903 50.76-122.743z" fill="#fe9901"/><path d="m378.743 378.743 58.276 58.276c49.987-49.987 74.981-115.503 74.981-181.019h-82.496c0 44.452-16.92 88.903-50.761 122.743z" fill="#fe93bb"/><path d="m378.743 133.257 58.276-58.276c-49.987-49.987-115.503-74.981-181.019-74.981v82.496c44.451 0 88.903 16.92 122.743 50.761z" fill="#ffc8dd"/><path d="m429.504 256h82.496c0-65.516-24.994-131.032-74.981-181.019l-58.276 58.276c33.841 33.84 50.761 78.291 50.761 122.743z" fill="#fff0ad"/><path d="m378.743 378.743 58.276 58.276c49.987-49.987 74.981-115.503 74.981-181.019h-82.496c0 44.452-16.92 88.903-50.761 122.743z" fill="#ffe177"/><path d="m378.743 133.257 58.276-58.276c-49.987-49.987-115.503-74.981-181.019-74.981v82.496c44.451 0 88.903 16.92 122.743 50.761z" fill="#fff3be"/><path d="m256 82.496v-82.496c-65.516 0-131.032 24.994-181.019 74.981l58.276 58.276c33.84-33.841 78.291-50.761 122.743-50.761z" fill="#fb8801"/></g><g fill="#93d8de"><path d="m377.306 187.949c-3.977-1.549-8.455.421-10.003 4.397l-2.172 5.58c-21.204-39.859-62.986-65.549-109.171-65.549-68.165 0-123.622 55.456-123.622 123.622 0 4.267 3.459 7.726 7.726 7.726s7.726-3.459 7.726-7.726c0-59.644 48.525-108.169 108.169-108.169 40.006 0 76.237 22.026 94.961 56.302l-5.531-2.153c-3.977-1.549-8.455.421-10.003 4.397-1.548 3.977.421 8.455 4.397 10.003l22.579 8.789c.73.327 1.512.542 2.316.631.006.001.012.001.018.002.041.004.082.009.124.013.246.024.491.036.736.036 3.093 0 6.013-1.87 7.202-4.926l8.942-22.973c1.551-3.976-.418-8.454-4.394-10.002z"/><path d="m371.895 248.274c-4.267 0-7.726 3.459-7.726 7.726 0 59.644-48.525 108.169-108.169 108.169-40.006 0-76.237-22.026-94.961-56.302l5.531 2.153c3.978 1.548 8.455-.422 10.003-4.397 1.548-3.977-.421-8.455-4.397-10.003l-22.587-8.792c-.716-.32-1.481-.533-2.269-.624-3.419-.413-6.813 1.514-8.12 4.871l-8.942 22.973c-1.548 3.977.421 8.455 4.397 10.003.921.359 1.869.528 2.801.528 3.093 0 6.013-1.87 7.202-4.926l2.172-5.58c21.204 39.859 62.986 65.549 109.171 65.549 68.165 0 123.622-55.456 123.622-123.622-.001-4.267-3.461-7.726-7.728-7.726z"/></g></g><g><path d="m469.468 256h42.532c0-65.516-24.994-131.032-74.981-181.019l-22.502 22.502c36.634 46.344 54.951 102.43 54.951 158.517z" fill="#ffe177"/><path d="m394.487 437.019c-39.13 39.13-87.775 62.944-138.487 71.443v3.538c65.516 0 131.032-24.994 181.019-74.981l-22.502-22.502c-6.159 7.792-12.835 15.308-20.03 22.502z" fill="#ffc344"/><path d="m469.468 256c0 56.087-18.317 112.173-54.951 158.517l22.502 22.502c49.987-49.987 74.981-115.503 74.981-181.019z" fill="#ffd15b"/><path d="m414.517 97.483 22.502-22.502c-49.987-49.987-115.503-74.981-181.019-74.981v3.538c50.712 8.499 99.358 32.313 138.487 71.443 7.195 7.194 13.871 14.71 20.03 22.502z" fill="#fff0ad"/></g></g></svg>